<?xml version="1.0" encoding="UTF-8"?>
<svg width="210px" height="62px" viewBox="0 0 210 62" version="1.1" xmlns="http://www.w3.org/2000/svg" xmlns:xlink="http://www.w3.org/1999/xlink">
    <title>Malan Copy 3</title>
    <g id="Page-1" stroke="none" stroke-width="1" fill="none" fill-rule="evenodd">
        <g id="Artboard-Copy" transform="translate(-770, -264)" fill="#170664" fill-rule="nonzero">
            <g id="Malan-Copy-3" transform="translate(770, 264)">
                <polygon id="Path" points="0 60.5793103 16.1684211 60.5793103 19.7052632 35.6744828 19.8736842 35.6744828 32 61 44.1263158 35.6744828 44.2947368 35.6744828 47.8315789 60.5793103 64 60.5793103 55.6631579 0 43.0315789 0 32 23.5586207 21.3052632 0 8.67368421 0"></polygon>
                <path d="M70.2352941,28.0377358 C72.9458824,27.6132075 75.0635294,27.0188679 79.6376471,27.0188679 C86.16,27.0188679 87.6,28.3773585 87.6,32.7924528 C86.2447059,32.1132075 83.7882353,31.6037736 81.1623529,31.6037736 C71.3364706,31.6037736 66,38.990566 66,46.5471698 C66,56.4811321 72.3529412,62 79.6376471,62 C85.5670588,62 88.6164706,58.6886792 89.1247059,57.754717 L89.2941176,57.754717 L89.2941176,60.9811321 L102,60.9811321 L102,30.8396226 C102,19.1226415 95.6470588,17 84.0423529,17 C80.0611765,17 75.9952941,17.3396226 72.0141176,17.5943396 L70.2352941,28.0377358 Z M84.5505882,41.1132075 C87.0070588,41.1132075 89.04,43.1509434 89.04,45.6132075 C89.04,48.0754717 87.0070588,50.1132075 84.5505882,50.1132075 C82.0941176,50.1132075 80.0611765,48.0754717 80.0611765,45.6132075 C80.0611765,43.1509434 82.0941176,41.1132075 84.5505882,41.1132075 Z" id="Shape"></path>
                <polygon id="Path" points="109 61 124 61 124 0 109 0"></polygon>
                <path d="M133.235294,28.0377358 C135.945882,27.6132075 138.063529,27.0188679 142.637647,27.0188679 C149.16,27.0188679 150.6,28.3773585 150.6,32.7924528 C149.244706,32.1132075 146.788235,31.6037736 144.162353,31.6037736 C134.336471,31.6037736 129,38.990566 129,46.5471698 C129,56.4811321 135.352941,62 142.637647,62 C148.567059,62 151.616471,58.6886792 152.124706,57.754717 L152.294118,57.754717 L152.294118,60.9811321 L165,60.9811321 L165,30.8396226 C165,19.1226415 158.647059,17 147.042353,17 C143.061176,17 138.995294,17.3396226 135.014118,17.5943396 L133.235294,28.0377358 Z M147.550588,41.1132075 C150.007059,41.1132075 152.04,43.1509434 152.04,45.6132075 C152.04,48.0754717 150.007059,50.1132075 147.550588,50.1132075 C145.094118,50.1132075 143.061176,48.0754717 143.061176,45.6132075 C143.061176,43.1509434 145.094118,41.1132075 147.550588,41.1132075 Z" id="Shape"></path>
                <path d="M172,61 L186.660754,61 L186.660754,36.8867925 C186.660754,34.0849057 187.250554,30.7735849 190.873614,30.7735849 C194.833703,30.7735849 195.339246,34.0849057 195.339246,36.8867925 L195.339246,61 L210,61 L210,28.6509434 C210,19.3113208 203.427938,16 197.361419,16 C192.980044,16 189.525499,17.9528302 186.660754,21.0943396 L186.660754,17.0188679 L172,17.0188679 L172,61 Z" id="Path"></path>
            </g>
        </g>
    </g>
</svg>