<?xml version="1.0" encoding="UTF-8"?>
<svg width="198px" height="45px" viewBox="0 0 198 45" version="1.1" xmlns="http://www.w3.org/2000/svg" xmlns:xlink="http://www.w3.org/1999/xlink">
    <title>MALAN Copy</title>
    <g id="Page-1" stroke="none" stroke-width="1" fill="none" fill-rule="evenodd">
        <g id="Artboard-Copy" transform="translate(-823, -121)" fill="#170664" fill-rule="nonzero">
            <g id="MALAN-Copy" transform="translate(823.54, 121.8)">
                <polygon id="Path" points="0 43.2 11.52 43.2 14.04 25.44 14.16 25.44 22.8 43.5 31.44 25.44 31.56 25.44 34.08 43.2 45.6 43.2 39.66 0 30.66 0 22.8 16.8 15.18 0 6.18 0"></polygon>
                <path d="M47.128727,43.2 L59.308727,43.2 L60.868727,38.4 L75.748727,38.4 L77.308727,43.2 L89.488727,43.2 L74.968727,2.13162821e-14 L62.248727,2.13162821e-14 L47.128727,43.2 Z M72.388727,27.72 L64.348727,27.72 L68.248727,15.72 L68.368727,15.72 L72.388727,27.72 Z" id="Shape"></path>
                <polygon id="Path" points="91.777454 43.2 115.237454 43.2 118.177454 31.8 103.057454 31.8 103.057454 0 91.777454 0"></polygon>
                <path d="M118.466181,43.2 L130.646181,43.2 L132.206181,38.4 L147.086181,38.4 L148.646181,43.2 L160.826181,43.2 L146.306181,0 L133.586181,0 L118.466181,43.2 Z M143.726181,27.72 L135.686181,27.72 L139.586181,15.72 L139.706181,15.72 L143.726181,27.72 Z" id="Shape"></path>
                <polygon id="Path" points="163.754908 43.2 175.034908 43.2 175.034908 24.84 191.354908 43.2 196.754908 43.2 196.754908 0 185.474908 0 185.474908 19.02 168.794908 0 163.754908 0"></polygon>
            </g>
        </g>
    </g>
</svg>